<svg height="511pt" viewBox="-61 0 511 511.99962" width="511pt" xmlns="http://www.w3.org/2000/svg"><path d="m390.023438 194.761719c0 68.554687-35.421876 128.828125-88.953126 163.53125-8.0625 5.238281-14.796874 12.265625-19.535156 20.625l-69.945312 123.5625c-.160156.273437-.316406.535156-.496094.800781-7.472656 11.882812-25.128906 11.621094-32.160156-.800781l-69.945313-123.5625c-4.726562-8.347657-11.449219-15.378907-19.503906-20.59375-54.300781-35.1875-89.976563-96.675781-88.964844-166.433594 1.597657-111.050781 97.503907-200.394531 210.59375-191.246094 100.152344 8.054688 178.910157 91.886719 178.910157 194.117188zm0 0" fill="#d63030"/><path d="m390.023438 194.761719c0 68.554687-35.421876 128.828125-88.953126 163.53125-8.0625 5.238281-14.796874 12.265625-19.535156 20.625l-69.945312 123.5625c-.160156.273437-.316406.535156-.496094.800781-.179688-.265625-.339844-.527344-.496094-.800781l-69.945312-123.5625c-4.726563-8.347657-11.453125-15.378907-19.503906-20.59375-54.304688-35.1875-89.976563-96.675781-88.964844-166.433594 1.445312-100.476563 80.097656-183.222656 178.929687-191.246094 100.152344 8.054688 178.910157 91.886719 178.910157 194.117188zm0 0" fill="#fb5858"/><path d="m339.066406 194.53125c0 79.4375-64.410156 143.804688-143.804687 143.804688-79.421875 0-143.804688-64.382813-143.804688-143.804688 0-85.367188 74.101563-152.316406 159.636719-142.929688 71.96875 7.886719 127.972656 68.867188 127.972656 142.929688zm0 0" fill="#c2eaf2"/><path d="m339.066406 194.53125c0 74.070312-56.003906 135.054688-127.972656 142.9375-71.972656-7.882812-127.972656-68.867188-127.972656-142.9375 0-74.0625 56-135.042969 127.972656-142.929688 71.96875 7.886719 127.972656 68.867188 127.972656 142.929688zm0 0" fill="#def4f8"/><path d="m223.675781 103.984375v118.039063c0 10.28125-5.457031 19.285156-13.628906 24.277343-4.304687 2.628907-9.359375 4.136719-14.785156 4.136719-15.695313 0-28.414063-12.71875-28.414063-28.414062v-118.039063c0-15.695313 12.71875-28.414063 28.414063-28.414063 2.554687 0 5.023437.339844 7.378906.972657 4.886719 1.296875 9.246094 3.871093 12.714844 7.34375 5.140625 5.152343 8.320312 12.246093 8.320312 20.097656zm0 0" fill="#d63030"/><path d="m215.292969 291.601562c0 5.898438-2.554688 11.207032-6.605469 14.871094-3.558594 3.207032-8.265625 5.171875-13.425781 5.171875-11.0625 0-20.03125-8.972656-20.03125-20.042969 0-11.0625 8.96875-20.035156 20.03125-20.035156 3.132812 0 6.101562.71875 8.738281 2.007813 6.683594 3.238281 11.292969 10.101562 11.292969 18.027343zm0 0" fill="#d63030"/><g fill="#f44545"><path d="m223.675781 103.984375v118.039063c0 10.28125-5.457031 19.285156-13.628906 24.277343-12.113281-3.242187-21.035156-14.300781-21.035156-27.441406v-118.042969c0-10.277344 5.457031-19.28125 13.628906-24.273437 4.886719 1.296875 9.246094 3.871093 12.714844 7.34375 5.140625 5.152343 8.320312 12.246093 8.320312 20.097656zm0 0"/><path d="m215.292969 291.601562c0 5.898438-2.554688 11.207032-6.605469 14.871094-6.679688-3.242187-11.292969-10.101562-11.292969-18.039062 0-5.898438 2.554688-11.199219 6.605469-14.859375 6.683594 3.238281 11.292969 10.101562 11.292969 18.027343zm0 0"/></g></svg>