<svg height="512pt" viewBox="-76 0 512 512" width="512pt" xmlns="http://www.w3.org/2000/svg"><path d="m335 437c0-41.421875-69.394531-75-155-75s-155 33.578125-155 75 69.394531 75 155 75 155-33.578125 155-75zm0 0" fill="#93d437"/><path d="m180 362v150c85.605469 0 155-33.578125 155-75s-69.394531-75-155-75zm0 0" fill="#75bf00"/><path d="m179.996094 451.722656c-4.433594 0-8.640625-1.964844-11.492188-5.359375l-126.398437-150.660156c-.132813-.160156-.265625-.320313-.390625-.488281-26.902344-32.261719-41.714844-73.152344-41.714844-115.214844 0-99.253906 80.746094-180 180-180s180 80.746094 180 180c0 42.125-14.851562 83.070312-41.832031 115.355469-.09375.117187-.1875.234375-.285157.347656l-126.394531 150.65625c-2.851562 3.398437-7.058593 5.363281-11.492187 5.363281zm0 0" fill="#0093ff"/><path d="m180 0v451.71875c4.433594 0 8.640625-1.960938 11.488281-5.359375l126.394531-150.65625c.097657-.113281.191407-.226563.285157-.347656 26.980469-32.285157 41.832031-73.230469 41.832031-115.355469 0-99.253906-80.746094-180-180-180zm0 0" fill="#007def"/><path d="m180 271c-8.285156 0-15-6.714844-15-15v-160c0-8.285156 6.714844-15 15-15s15 6.714844 15 15v160c0 8.285156-6.714844 15-15 15zm0 0" fill="#d7f0f5"/><path d="m195 301c0 8.285156-6.714844 15-15 15s-15-6.714844-15-15 6.714844-15 15-15 15 6.714844 15 15zm0 0" fill="#d7f0f5"/><g fill="#c3e1eb"><path d="m195 256v-160c0-8.285156-6.714844-15-15-15v190c8.285156 0 15-6.714844 15-15zm0 0"/><path d="m195 301c0-8.285156-6.714844-15-15-15v30c8.285156 0 15-6.714844 15-15zm0 0"/></g></svg>